<svg xmlns="http://www.w3.org/2000/svg" fill="none" viewBox="0 0 67 40"><path fill="#fff" d="M29.649 40a1.115 1.115 0 0 1-1.113-1.105V10.997a1.107 1.107 0 0 1 1.11-1.03 1.107 1.107 0 0 1 1.11 1.03v27.899c0 .292-.118.572-.325.779a1.12 1.12 0 0 1-.782.325M64.914 39.995c-.294 0-.576-.117-.784-.325a1.1 1.1 0 0 1-.326-.78V10.992a1.105 1.105 0 0 1 .665-1.099 1.117 1.117 0 0 1 1.495.65c.05.144.07.297.06.449V38.89a1.106 1.106 0 0 1-1.11 1.105M8.639 36.246a1.115 1.115 0 0 1-1.113-1.108V10.993A1.1 1.1 0 0 1 8.192 9.9a1.117 1.117 0 0 1 1.493.647c.051.143.072.296.061.447v24.148a1.106 1.106 0 0 1-1.107 1.105"/><path fill="#fff" d="M4.879 39.995a4.9 4.9 0 0 1-3.445-1.425 4.86 4.86 0 0 1-1.43-3.432 1.1 1.1 0 0 1 .664-1.098 1.116 1.116 0 0 1 1.495.65c.05.143.07.296.06.448.025.685.316 1.333.812 1.808a2.664 2.664 0 0 0 3.688 0 2.64 2.64 0 0 0 .812-1.808 1.106 1.106 0 0 1 1.11-1.03 1.115 1.115 0 0 1 1.11 1.03 4.86 4.86 0 0 1-1.43 3.432 4.9 4.9 0 0 1-3.446 1.425M40.144 39.996a4.9 4.9 0 0 1-3.446-1.425 4.86 4.86 0 0 1-1.43-3.432 1.107 1.107 0 0 1 1.11-1.03 1.115 1.115 0 0 1 1.11 1.03 2.64 2.64 0 0 0 .739 1.941 2.66 2.66 0 0 0 1.917.814 2.67 2.67 0 0 0 1.917-.814 2.65 2.65 0 0 0 .739-1.941c0-2.514-1.855-6.179-3.654-9.721-1.994-3.936-3.878-7.653-3.878-10.674 0-1.288.513-2.524 1.428-3.435a4.886 4.886 0 0 1 6.896 0 4.85 4.85 0 0 1 1.428 3.435 1.115 1.115 0 0 1-2.22 0 2.64 2.64 0 0 0-.739-1.941 2.66 2.66 0 0 0-1.917-.814 2.67 2.67 0 0 0-1.917.814 2.65 2.65 0 0 0-.74 1.94c0 2.495 1.852 6.147 3.641 9.678 2.001 3.948 3.895 7.678 3.895 10.718a4.86 4.86 0 0 1-1.432 3.433 4.9 4.9 0 0 1-3.447 1.424M54.414 39.995a4.9 4.9 0 0 1-3.445-1.425 4.86 4.86 0 0 1-1.431-3.432 1.1 1.1 0 0 1 .666-1.094 1.117 1.117 0 0 1 1.493.647c.051.143.072.295.06.447.027.685.318 1.333.813 1.808a2.664 2.664 0 0 0 3.689 0 2.64 2.64 0 0 0 .812-1.808 1.1 1.1 0 0 1 .665-1.098 1.116 1.116 0 0 1 1.495.65c.05.143.07.296.06.448a4.86 4.86 0 0 1-1.431 3.432 4.9 4.9 0 0 1-3.446 1.425"/><path fill="#fff" d="M50.654 36.243a1.115 1.115 0 0 1-1.113-1.109V14.741a1.1 1.1 0 0 1 .666-1.094 1.117 1.117 0 0 1 1.493.647c.051.143.072.296.06.447v20.396a1.107 1.107 0 0 1-1.106 1.106"/><path fill="#fff" d="M58.18 15.852c-.294 0-.576-.118-.784-.326a1.1 1.1 0 0 1-.325-.782 2.64 2.64 0 0 0-.742-1.936 2.66 2.66 0 0 0-1.915-.811 2.67 2.67 0 0 0-1.914.81 2.65 2.65 0 0 0-.742 1.937 1.1 1.1 0 0 1-.666 1.094 1.117 1.117 0 0 1-1.493-.647 1.1 1.1 0 0 1-.061-.447c0-1.288.514-2.524 1.428-3.435a4.886 4.886 0 0 1 6.896 0 4.85 4.85 0 0 1 1.428 3.435 1.106 1.106 0 0 1-1.11 1.108M19.086 31.093a.557.557 0 0 1-.557-.554v-26.9c0-.146.059-.287.163-.39L21.759.194a.557.557 0 0 1 .923.602.6.6 0 0 1-.139.18l-2.905 2.893v26.67a.553.553 0 0 1-.552.554M15.383 36.246a1.115 1.115 0 0 1-1.113-1.108V10.993a1.1 1.1 0 0 1 .666-1.094 1.117 1.117 0 0 1 1.494.647c.05.143.071.296.06.447v24.148a1.106 1.106 0 0 1-1.107 1.105M22.918 36.25a1.106 1.106 0 0 1-1.11-1.108V10.998a1.1 1.1 0 0 1 .666-1.099 1.117 1.117 0 0 1 1.495.65c.05.144.07.297.06.449v24.147a1.106 1.106 0 0 1-1.11 1.105"/><path fill="#fff" d="M19.146 39.997a4.9 4.9 0 0 1-3.445-1.425 4.86 4.86 0 0 1-1.43-3.432 1.1 1.1 0 0 1 .665-1.095 1.117 1.117 0 0 1 1.494.648c.05.143.071.295.06.447.026.685.317 1.333.813 1.808a2.664 2.664 0 0 0 3.688 0 2.64 2.64 0 0 0 .812-1.808 1.1 1.1 0 0 1 .665-1.098 1.117 1.117 0 0 1 1.495.65c.05.143.071.296.06.448a4.86 4.86 0 0 1-1.431 3.432 4.9 4.9 0 0 1-3.446 1.425"/><path fill="#ffc408" d="M21.805 18.79v16.343a2.64 2.64 0 0 1-.736 1.946 2.66 2.66 0 0 1-1.92.816 2.67 2.67 0 0 1-1.92-.816 2.65 2.65 0 0 1-.735-1.946V18.79z"/></svg>
