<svg xmlns="http://www.w3.org/2000/svg" viewBox="0 0 475.98 100.86"><path fill="#fff" d="M152.38 13.35v49.3h-6.79l-25.61-35.21v35.21h-7.93v-49.3h7.31l25.09 34.62V13.35ZM160.9 43.63c0-11.5 8.71-19.94 20.34-19.94s20.33 8.49 20.33 19.94-8.72 19.94-20.33 19.94-20.34-8.51-20.34-19.94m32.72 0c0-7.28-5.18-12.48-12.38-12.48s-12.38 5.2-12.38 12.48 5.18 12.48 12.38 12.48 12.38-5.2 12.38-12.48M231.56 24.4v7.39h-4.12c-6.47 0-9.7 3.69-9.7 10.58v20.28h-7.81v-38h5.28l1.33 5.2c2.72-3.61 6.45-5.41 11.64-5.41ZM273.95 10.98v51.67h-5.91l-1-4.32a19.06 19.06 0 0 1-13.42 5.26c-11.5 0-19.77-8.56-19.77-20s8.27-19.94 19.77-19.94a19.27 19.27 0 0 1 12.53 4.42V10.98Zm-7.27 32.65a12.44 12.44 0 1 0-24.87 0 12.44 12.44 0 1 0 24.87 0M282.32 43.59a19.48 19.48 0 0 1 20-19.9c9.4 0 16.74 5.76 18.86 14.48h-7.75a11.91 11.91 0 0 0-11.13-7c-6.85 0-12 5.41-12 12.46s5.19 12.5 12 12.5a11.78 11.78 0 0 0 11.08-7.31h7.89c-2.09 8.88-9.58 14.77-19 14.77a19.55 19.55 0 0 1-19.95-20M328.94 10.98h7.85v51.67h-7.82ZM345.1 43.63c0-11.5 8.7-19.94 20.34-19.94s20.35 8.49 20.35 19.94-8.72 19.94-20.33 19.94-20.36-8.51-20.36-19.94m32.71 0c0-7.28-5.18-12.48-12.37-12.48s-12.38 5.2-12.38 12.48 5.18 12.48 12.38 12.48 12.35-5.2 12.35-12.48ZM393.53 46.59v-22h7.82v20.9c0 6.61 3.61 10.62 9.48 10.62s9.46-4.08 9.46-10.62V24.61h7.82v22c0 10.23-6.79 17-17.28 17s-17.3-6.79-17.3-17.02M475.98 10.98v51.67h-5.91l-1-4.32a19.07 19.07 0 0 1-13.43 5.26c-11.5 0-19.77-8.56-19.77-20s8.27-19.94 19.77-19.94a19.26 19.26 0 0 1 12.53 4.42V10.98Zm-7.27 32.65a12.44 12.44 0 1 0-24.87 0 12.44 12.44 0 1 0 24.87 0M89.79 39.9c0-.16 0-.32-.05-.47a18 18 0 0 0-.27-1.82c0-.15-.07-.3-.11-.45-.1-.47-.22-.93-.35-1.38-.06-.19-.11-.39-.17-.58-.17-.53-.36-1-.57-1.55l-.27-.62c-.17-.38-.36-.76-.55-1.13-.09-.17-.17-.35-.27-.52-.26-.48-.55-1-.85-1.4l-.36-.54c-.3-.42-.6-.83-.92-1.23l-.27-.32c-.34-.41-.71-.8-1.08-1.19l-.35-.35c-.43-.42-.87-.83-1.33-1.21l-.18-.14c-.44-.36-.89-.7-1.36-1l-.3-.21c-.08-.05-.16-.12-.25-.17a25.19 25.19 0 0 0-43.47-15.7A21 21 0 0 0 33 7.63a21.36 21.36 0 0 0-20.81 16.71A20.55 20.55 0 0 0 .01 43.84c.4 11.11 9.88 19.75 21 19.75h23.67a8.81 8.81 0 0 0-8.81-8.81h-15a11.94 11.94 0 0 1-12.08-11.5A11.7 11.7 0 0 1 20.5 31.39h.29a12.48 12.48 0 0 1 19-12.91 16.41 16.41 0 0 1 31.4 6.74 16.2 16.2 0 0 1-.51 4l.68.17.49.12.63.22c.17.06.33.11.49.18l.6.26.48.23.55.3.47.29c.17.11.35.22.51.34s.31.22.46.33l.47.37.45.41.4.38c.26.26.51.54.75.83a4 4 0 0 1 .25.33c.16.2.32.4.46.61s.17.27.26.41.25.39.36.59l.24.45c.1.2.2.41.29.62s.14.31.2.47.17.43.24.65.11.32.15.48.13.47.19.71.07.31.1.47.09.53.12.81 0 .27.06.4c0 .41.06.83.06 1.25a11 11 0 0 1-.07 1.32 12.4 12.4 0 0 1-.51 2.52 12.5 12.5 0 0 1-.7 1.73 12.3 12.3 0 0 1-1.75 2.73 12 12 0 0 1-1.67 1.67 12 12 0 0 1-1 .75 13 13 0 0 1-2.19 1.19 12 12 0 0 1-1.19.43 13 13 0 0 1-2.52.52q-.66.06-1.32.06a12.92 12.92 0 0 1-12.93-12.96h5.28a.16.16 0 0 0 .14-.25l-9-15.61a.94.94 0 0 0-1.62 0l-9 15.61a.16.16 0 0 0 .14.25h5.28a21.73 21.73 0 0 0 43.46 0c-.02-.66-.06-1.31-.13-1.96M121.41 96.28a1.82 1.82 0 0 1-1.49-.56 2.7 2.7 0 0 1-.56-1.38h-.12a3.06 3.06 0 0 1-1.29 1.66 4 4 0 0 1-2.15.56 4.2 4.2 0 0 1-2.95-1 3.43 3.43 0 0 1-1.05-2.64 3 3 0 0 1 1.24-2.58 6.47 6.47 0 0 1 3.84-.91h2.36v-1.15a2.57 2.57 0 0 0-.69-1.94 3 3 0 0 0-2.13-.67 3.2 3.2 0 0 0-1.81.48 4 4 0 0 0-1.21 1.29l-1.11-1a4.26 4.26 0 0 1 1.54-1.66 5.79 5.79 0 0 1 6.06.38 3.74 3.74 0 0 1 1.2 3v6.55h1.36v1.57Zm-5.31-1.29a4.6 4.6 0 0 0 1.27-.17 3 3 0 0 0 1-.46 2.35 2.35 0 0 0 .65-.69 1.7 1.7 0 0 0 .23-.86v-2h-2.46a4.44 4.44 0 0 0-2.32.46 1.49 1.49 0 0 0-.73 1.34v.49a1.6 1.6 0 0 0 .64 1.36 2.77 2.77 0 0 0 1.72.5ZM125.08 96.28V84.33h1.85v1.95h.09a3.93 3.93 0 0 1 1.24-1.6 3.46 3.46 0 0 1 2.14-.6 3.75 3.75 0 0 1 2.92 1.19 4.84 4.84 0 0 1 1.07 3.36v7.65h-1.84v-7.34c0-2.15-.91-3.22-2.71-3.22a4.2 4.2 0 0 0-1.07.14 3 3 0 0 0-.94.42 2.2 2.2 0 0 0-.66.7 2.1 2.1 0 0 0-.24 1v8.3ZM143.08 96.28v-1.62h2.26V81.74h-2.26v-1.61h6.47v1.61h-2.27v12.89h2.27v1.65ZM153.08 80.13h6.63a4.25 4.25 0 0 1 3.15 1.13 4 4 0 0 1 1.15 3 4.1 4.1 0 0 1-.26 1.53 3.3 3.3 0 0 1-.64 1 2.7 2.7 0 0 1-.86.6 3.7 3.7 0 0 1-.85.26v.14a3.3 3.3 0 0 1 2 .89 3.7 3.7 0 0 1 1.15 2.85 5.3 5.3 0 0 1-.31 1.85 4.6 4.6 0 0 1-.87 1.48 4.2 4.2 0 0 1-1.31 1 3.9 3.9 0 0 1-1.67.36h-7.32Zm1.94 7h4.46a2.58 2.58 0 0 0 1.8-.58 2.11 2.11 0 0 0 .65-1.66v-.78a2.13 2.13 0 0 0-.65-1.67 2.63 2.63 0 0 0-1.8-.58h-4.46Zm0 7.44h4.77a2.85 2.85 0 0 0 2-.64 2.37 2.37 0 0 0 .71-1.86v-.79a2.37 2.37 0 0 0-.71-1.86 2.9 2.9 0 0 0-2-.64h-4.78ZM180.73 82.67h-.11l-1.37 2.7-3.86 7-3.85-7-1.37-2.7h-.11v13.61h-1.9V80.13h2.63l4.62 8.68h.12l4.64-8.68h2.5v16.15h-1.9ZM198.06 96.53a5.86 5.86 0 0 1-4.79-2.09q-1.71-2.1-1.71-6.16a10 10 0 0 1 1.71-6.25 5.75 5.75 0 0 1 4.79-2.18 5.64 5.64 0 0 1 5.54 3.51l-1.57 1a4.43 4.43 0 0 0-1.48-2 4 4 0 0 0-2.49-.75 4.24 4.24 0 0 0-1.86.39 3.8 3.8 0 0 0-1.41 1.08 5.1 5.1 0 0 0-.87 1.73 8 8 0 0 0-.3 2.26v2.42a6 6 0 0 0 1.16 3.91 4 4 0 0 0 3.26 1.42 4.1 4.1 0 0 0 2.58-.8 4.63 4.63 0 0 0 1.53-2.11l1.55 1a6.2 6.2 0 0 1-2.2 2.68 6.07 6.07 0 0 1-3.44.94M211.04 96.53a5.5 5.5 0 0 1-2.2-.44 4.6 4.6 0 0 1-1.69-1.26 5.9 5.9 0 0 1-1.1-2 8.63 8.63 0 0 1 0-5.13 5.9 5.9 0 0 1 1.1-2 4.6 4.6 0 0 1 1.69-1.26 5.5 5.5 0 0 1 2.2-.44 5.3 5.3 0 0 1 2.18.44 4.8 4.8 0 0 1 1.7 1.26 5.8 5.8 0 0 1 1.11 2 8.63 8.63 0 0 1 0 5.13 5.7 5.7 0 0 1-1.11 2 4.8 4.8 0 0 1-1.7 1.26 5.3 5.3 0 0 1-2.18.44m0-1.64a3.37 3.37 0 0 0 2.45-.93 3.76 3.76 0 0 0 .94-2.82v-1.71a3.75 3.75 0 0 0-.94-2.81 3.69 3.69 0 0 0-4.9 0 3.76 3.76 0 0 0-1 2.81v1.71a3.77 3.77 0 0 0 1 2.82 3.35 3.35 0 0 0 2.45.93M219.47 96.28V84.33h1.85v1.95h.09a7 7 0 0 1 .47-.86 3.1 3.1 0 0 1 .65-.7 3 3 0 0 1 .89-.47 3.9 3.9 0 0 1 1.2-.17 4.36 4.36 0 0 1 2.17.56 3.4 3.4 0 0 1 1.48 1.85h.05a3.65 3.65 0 0 1 1.21-1.69 3.72 3.72 0 0 1 2.41-.72 3.6 3.6 0 0 1 2.85 1.2 5 5 0 0 1 1 3.36v7.64h-1.84v-7.34a3.9 3.9 0 0 0-.63-2.41 2.34 2.34 0 0 0-2-.81 4 4 0 0 0-1.06.14 2.7 2.7 0 0 0-.88.42 2 2 0 0 0-.63.7 2.2 2.2 0 0 0-.23 1v8.3h-1.85v-7.34a4 4 0 0 0-.62-2.41 2.3 2.3 0 0 0-1.94-.81 4 4 0 0 0-1.06.14 2.7 2.7 0 0 0-.9.42 2 2 0 0 0-.64.7 2.1 2.1 0 0 0-.24 1v8.3ZM239.64 84.33h1.84v1.95h.1a3.27 3.27 0 0 1 1.35-1.66 4 4 0 0 1 2.13-.54 4.56 4.56 0 0 1 2 .44 4.3 4.3 0 0 1 1.54 1.25 5.7 5.7 0 0 1 1 2 10.3 10.3 0 0 1 0 5.18 5.7 5.7 0 0 1-1 2 4.3 4.3 0 0 1-1.54 1.25 4.56 4.56 0 0 1-2 .44 3.61 3.61 0 0 1-3.48-2.2h-.1v6.54h-1.84Zm4.92 10.56a3.18 3.18 0 0 0 2.47-1 3.7 3.7 0 0 0 .9-2.59v-2a3.7 3.7 0 0 0-.9-2.59 3.18 3.18 0 0 0-2.47-1 3.9 3.9 0 0 0-1.19.18 3.2 3.2 0 0 0-1 .47 2.4 2.4 0 0 0-.65.73 1.8 1.8 0 0 0-.25.92v4.46a2 2 0 0 0 .25 1 2.4 2.4 0 0 0 .65.77 2.8 2.8 0 0 0 1 .47 4.2 4.2 0 0 0 1.19.18M261.7 96.28a1.8 1.8 0 0 1-1.49-.56 2.8 2.8 0 0 1-.57-1.38h-.12a3.06 3.06 0 0 1-1.29 1.66 4 4 0 0 1-2.15.56 4.2 4.2 0 0 1-2.94-1 3.43 3.43 0 0 1-1.05-2.64 3 3 0 0 1 1.23-2.58 6.5 6.5 0 0 1 3.85-.91h2.35v-1.15a2.57 2.57 0 0 0-.73-2 2.93 2.93 0 0 0-2.12-.67 3.24 3.24 0 0 0-1.82.48 4.05 4.05 0 0 0-1.21 1.29l-1.11-1a4.2 4.2 0 0 1 1.55-1.66 5.77 5.77 0 0 1 6.05.38 3.74 3.74 0 0 1 1.2 3v6.55h1.36v1.63Zm-5.32-1.29a4.6 4.6 0 0 0 1.27-.17 3 3 0 0 0 1-.46 2.3 2.3 0 0 0 .64-.69 1.6 1.6 0 0 0 .23-.86v-2h-2.44a4.5 4.5 0 0 0-2.29.47 1.5 1.5 0 0 0-.72 1.34v.49a1.62 1.62 0 0 0 .63 1.36 2.8 2.8 0 0 0 1.68.49ZM265.37 96.28V84.33h1.85v1.95h.09a3.83 3.83 0 0 1 1.23-1.6 3.5 3.5 0 0 1 2.14-.6 3.74 3.74 0 0 1 2.92 1.19 4.85 4.85 0 0 1 1.08 3.36v7.65h-1.89v-7.34c0-2.15-.9-3.22-2.7-3.22a4.3 4.3 0 0 0-1.08.14 2.9 2.9 0 0 0-.93.42 2 2 0 0 0-.66.7 2.1 2.1 0 0 0-.24 1v8.3ZM285.65 84.33h1.82l-5.33 14.69a6 6 0 0 1-.42.89 1.8 1.8 0 0 1-.51.57 2.1 2.1 0 0 1-.75.3 5.6 5.6 0 0 1-1.09.09h-.95v-1.59h1.87l.9-2.54-4.46-12.36h1.85l2.87 8.09.55 1.94h.12l.64-1.94Z"/></svg>
