<svg xmlns="http://www.w3.org/2000/svg" fill="none" class="navbar_logo" viewBox="0 0 140 32"><path fill="#fff" d="M16.45 0c8.81 0 15.951 7.163 15.951 16s-7.141 16-15.95 16C7.64 32 .498 24.836.498 16S7.641 0 16.45 0m97.548 8.482c4.856 0 8.821 2.445 8.821 7.868v15.199h-6.326l.053-2.283-1.92 2.283c-.447.19-1.741.444-3.033.444-4.233 0-7.441-2.888-7.441-7.155 0-4.533 3.564-7.467 8.064-7.467 1.916 0 3.386.49 4.277 1.068v-2c0-1.799-1.055-2.965-2.73-2.993-1.539 0-2.514 1.218-2.61 2.437l-6.243-.023c.223-4.666 4.499-7.377 9.088-7.378m18.033 3.798 2.819-3.346h4.444v6.399h-3.253c-2.717 0-4.01 1.245-4.01 4v12.223h-6.326V8.934h6.326zm-91.404-.007 2.818-3.346h4.444v6.4h-3.252c-2.718 0-4.01 1.245-4.01 4V31.55h-6.326V8.927h6.326zm21.282-3.79c5.39 0 8.777 3.555 8.777 9.289v13.777h-6.327v-12.4c0-3.11-1.648-4.933-4.098-4.933s-4.144 1.822-4.144 4.933v12.4h-6.326V8.927h6.326v3.298l2.786-3.297a9.8 9.8 0 0 1 3.006-.446m17.933 23.066h-6.326V8.927h6.326zm9.141-13.155 7.128-9.467h8.198l-8.866 10.266 9.528 12.356h-8.278l-7.71-11.645V31.55h-6.326V.439h6.326zm24.659 3.022c-1.782 0-3.119 1.29-3.119 2.934.001 1.644 1.337 2.932 3.119 2.932 1.871 0 3.253-1.333 3.253-2.977 0-1.6-1.382-2.889-3.253-2.889M16.45 6.247c-4.968 0-8.996 4.367-8.996 9.753s4.028 9.753 8.996 9.753 8.995-4.366 8.995-9.753c0-5.386-4.027-9.753-8.995-9.753m63.386.51h-6.327V.444h6.327z"/></svg>
