<svg xmlns="http://www.w3.org/2000/svg" width="425" height="190" fill="none"><path fill="#fff" d="M365.607 46c14.6 0 25.001 6.2 31.601 15l2.8-13.8h24.599V190h-28.199v-53.199c-6.8 8.4-16.8 14.399-31 14.399-27.4 0-47.6-19.799-47.6-52.4 0-31.8 20.2-53 47.799-52.8m-194.914 0c30.8 0 51.6 19.2 52 49.4 0 3-.199 6.4-.799 9.6h-74.6v1.4c.6 14.6 10 23.401 24.2 23.401 11.4 0 19.4-5.001 21.8-14.601h27.8c-3.2 20-21.001 36-48.401 36-34.199 0-54.799-20.6-54.799-52.4 0-32 21-52.8 52.799-52.8M113.2 29.8l-71.8 94.6H115V150H0v-19.8l71.8-94.6h-70V10h111.4zM262.305 150h-28.201V10h28.201zm44.051 0h-28.4V47.2h28.4zm65.452-81c-15.4 0-25.201 12-25.201 29.4 0 17.6 9.801 29.8 25.201 29.8s25-12.199 25-29.6c0-17.6-9.6-29.6-25-29.6m-200.914-2c-12.2 0-21.4 7.4-23 19.6h46.4c-2-12.6-10.6-19.6-23.4-19.6m139.854-48.126-18.874 18.874L273 18.874 291.874 0z"/></svg>
